<?xml version="1.0" encoding="utf-8"?>
<!-- Generator: Adobe Illustrator 19.0.0, SVG Export Plug-In . SVG Version: 6.00 Build 0)  -->
<svg version="1.1" id="Layer_1" xmlns="http://www.w3.org/2000/svg" xmlns:xlink="http://www.w3.org/1999/xlink" x="0px" y="0px"
	 viewBox="0 0 960 560" enable-background="new 0 0 960 560" xml:space="preserve">
<circle id="XMLID_2_" fill="#0B0B4F" cx="239.9" cy="280.3" r="182.5"/>
<line id="XMLID_3_" fill="none" stroke="#FCEE21" stroke-width="10" stroke-linecap="round" stroke-linejoin="round" stroke-miterlimit="10" x1="38.8" y1="233.3" x2="129.3" y2="330"/>
<line id="XMLID_4_" fill="none" stroke="#FCEE21" stroke-width="10" stroke-miterlimit="10" x1="129.3" y1="330" x2="322.4" y2="234.6"/>
<circle id="XMLID_5_" fill="#FCEE21" stroke="#FCEE21" stroke-width="4" stroke-miterlimit="10" cx="129.3" cy="330" r="10.4"/>
<circle id="XMLID_6_" fill="#FCEE21" stroke="#FCEE21" stroke-width="4" stroke-miterlimit="10" cx="320.3" cy="238" r="10.4"/>
<line id="XMLID_7_" fill="none" stroke="#FCEE21" stroke-width="10" stroke-linecap="round" stroke-miterlimit="10" x1="320.3" y1="238" x2="434" y2="363"/>
<g id="XMLID_1_">
	<path id="XMLID_17_" fill="#0C344C" d="M452.7,492.9l-14.2,0.8l-13.2,0.6l-26.5,1.2l-26.5,1l-26.5,0.9c-17.7,0.5-35.3,1-53,1.4
		l-26.5,0.6l-26.5,0.5l-26.5,0.4l-26.5,0.3l-26.5,0.2l-26.5,0.2l-26.5,0.1c-8.8,0-17.7,0-26.5,0c-8.8-0.1-17.7-0.1-26.5-0.2
		c-8.8-0.1-17.7-0.2-26.5-0.4l-8.5-0.2l0.1-8.2c0.1-8.8,0.4-17.7,0.6-26.5l0.7-26.5l1.6-53c0.5-17.7,1-35.3,1.4-53l0.5-26.5
		c0.1-8.8,0.3-17.7,0.3-26.5c0.1-8.8,0.2-17.7,0.2-26.5c0-8.8,0.1-17.7,0-26.5c0-8.8,0-17.7-0.1-26.5L24.6,174l-0.4-26.5l-0.5-26.5
		c-0.2-8.8-0.3-17.7-0.6-26.5l-0.7-26.5l-0.1-5.3l5.6-0.1l53-1.4l26.5-0.6l26.5-0.5l26.5-0.5l26.5-0.4l53-0.6l53-0.6l53-0.5
		l26.5-0.2l26.5-0.1l26.5,0l26.5,0.1l10.7,0l-0.1,10.7l-0.1,26.5l-0.2,26.5l-0.3,26.5l-0.3,26.5l-0.8,53l-1,53l-0.6,26.5l-0.7,26.5
		l-0.7,26.5l-0.8,26.5c-0.3,8.8-0.5,17.7-0.9,26.5l-1,26.5l-1.1,26.5c-0.4,8.8-0.8,17.7-1.2,26.5L452.7,492.9z M450.7,490.8
		c-0.4-8.5-0.8-17-1.2-25.4l-1.1-26.5l-1-26.5c-0.3-8.8-0.6-17.7-0.9-26.5l-0.8-26.5l-0.7-26.5l-0.7-26.5l-0.6-26.5l-1-53l-0.8-53
		l-0.3-26.5l-0.3-26.5l-0.2-26.5l-0.1-26.5l10.7,10.7l-26.5,0.1l-26.5,0l-26.5-0.1l-26.5-0.2l-53-0.5l-53-0.6l-53-0.6l-26.5-0.4
		l-26.5-0.5l-26.5-0.5l-26.5-0.6l-53-1.4l5.5-5.5l-0.7,26.5c-0.2,8.8-0.4,17.7-0.6,26.5l-0.5,26.5L31.3,174l-0.2,26.5
		C31,209.4,31,218.2,31,227c0,8.8,0,17.7,0,26.5c0,8.8,0.1,17.7,0.2,26.5c0.1,8.8,0.2,17.7,0.3,26.5L32,333
		c0.4,17.7,0.9,35.3,1.4,53l1.6,53l0.7,26.5c0.2,8.8,0.4,17.7,0.6,26.5l-8.3-8.3c8.8-0.2,17.7-0.3,26.5-0.4
		c8.8-0.1,17.7-0.2,26.5-0.2c8.8-0.1,17.7,0,26.5,0l26.5,0.1l26.5,0.2l26.5,0.2l26.5,0.3l26.5,0.4l26.5,0.5l26.5,0.6
		c17.7,0.4,35.3,0.9,53,1.4l26.5,0.9l26.5,1l26.5,1.2l13.2,0.6L450.7,490.8z"/>
</g>
</svg>
